<?xml version="1.0" encoding="utf-8"?>
<!-- Generator: Adobe Illustrator 19.0.0, SVG Export Plug-In . SVG Version: 6.00 Build 0)  -->
<svg version="1.1" id="Calque_1" xmlns="http://www.w3.org/2000/svg" xmlns:xlink="http://www.w3.org/1999/xlink" x="0px" y="0px"
	 viewBox="-379 181 200 200" style="enable-background:new -379 181 200 200;" xml:space="preserve">
<style type="text/css">
	.st0{fill:#4FC1EA;}
	.st1{opacity:0.3;}
	.st2{fill:#585763;}
</style>
<g id="XMLID_27_">
	<path id="XMLID_1509_" class="st0" d="M-352.7,427.3L-363,417c-8.3-8.3-21.8-8.3-30.1,0c-8.3,8.3-8.3,21.8,0,30.1l10.2,10.2
		c4.1,4.2,9.6,6.2,15.1,6.2s10.9-2.1,15.1-6.2C-344.4,449.1-344.4,435.6-352.7,427.3z M-378,415.1c3.7,0,7.3,1.2,10.3,3.5L-378,429
		l-10.3-10.3C-385.3,416.3-381.7,415.1-378,415.1z M-391.4,421.7l10.3,10.3l-10.3,10.3C-396.1,436.3-396.1,427.8-391.4,421.7z
		 M-355.8,454.3c-6.6,6.6-17.4,6.6-24,0l-8.7-8.7l24-24l8.7,8.7C-349.2,436.9-349.2,447.7-355.8,454.3z"/>
	<g id="XMLID_977_" class="st1">
		<path id="XMLID_981_" class="st2" d="M-382.8,457.4l-1.6-1.6c-1.5,0.6-3.1,1.1-4.7,1.5c1-1,2-2.1,2.9-3.3l-3.2-3.2
			c-3.4,4.5-7.3,7.4-11.5,8.1v-18.8c1,0,2.1,0,3.1-0.1c-0.6-1.4-1-2.8-1.2-4.3c-0.6,0-1.3,0-1.9,0V409h23.5c0,0.5,0,1.1-0.1,1.6
			c1.5,0,2.9,0.2,4.3,0.6c0-0.7,0.1-1.4,0.1-2.1h22.1c-0.2,5.8-1.4,11.3-3.4,16.4l1.6,1.6c0.6,0.6,1.2,1.2,1.7,1.9
			c2.9-6.8,4.5-14.3,4.5-22.1c0-31.1-25.3-56.5-56.5-56.5s-56.4,25.5-56.4,56.7s25.3,56.5,56.5,56.5c7.8,0,15.3-1.6,22.1-4.5
			C-381.6,458.5-382.2,458-382.8,457.4z M-356.7,383.1c3.4,6.6,5.5,14,5.8,21.8H-373c-0.2-9-1.4-17.5-3.5-24.9
			c6.6,0.9,13.2,2.1,19.7,3.7L-356.7,383.1z M-359.4,378.6c-6.2-1.4-12.4-2.4-18.7-3.2c-2.8-7.9-6.6-14.2-11.1-18.6
			C-376.7,360.3-366.2,368.2-359.4,378.6z M-400.8,355.2c7.1,1.3,13.5,8.8,17.9,19.7c-5.9-0.6-11.9-0.9-17.9-1V355.2z M-400.8,378.3
			c6.5,0.1,13,0.5,19.5,1.2c2.4,7.5,3.8,16.2,4,25.5h-23.5V378.3z M-416.9,356.8c-4.5,4.3-8.3,10.7-11.1,18.6
			c-6.3,0.8-12.5,1.9-18.7,3.2C-439.8,368.2-429.3,360.3-416.9,356.8z M-449.3,383.1l0.1,0.5c6.5-1.6,13.1-2.8,19.7-3.7
			c-2.1,7.4-3.4,15.8-3.5,24.9h-22.1C-454.8,397.1-452.7,389.7-449.3,383.1z M-449.3,431c-3.4-6.6-5.5-14-5.8-21.8h22.1
			c0.2,9,1.4,17.5,3.5,24.9c-6.6-0.9-13.2-2.1-19.7-3.7L-449.3,431z M-446.7,435.5c6.2,1.4,12.4,2.4,18.7,3.2
			c2.8,7.9,6.6,14.2,11.1,18.6C-429.3,453.9-439.8,446-446.7,435.5z M-405.2,459c-7.1-1.3-13.5-8.8-17.9-19.7
			c5.9,0.6,11.9,0.9,17.9,1C-405.2,440.3-405.2,459-405.2,459z M-405.2,435.9c-6.5-0.1-13-0.5-19.5-1.2c-2.4-7.5-3.8-16.2-4-25.5
			h23.5V435.9z M-405.2,404.9h-23.5c0.2-9.3,1.7-18,4-25.5c6.5-0.7,13-1.1,19.5-1.2V404.9z M-405.2,373.9c-6,0.1-11.9,0.4-17.8,1
			c4.3-11,10.7-18.5,17.8-19.7V373.9z"/>
	</g>
</g>
</svg>
