<?xml version="1.0" encoding="utf-8"?>
<!-- Generator: Adobe Illustrator 19.0.0, SVG Export Plug-In . SVG Version: 6.00 Build 0)  -->
<svg version="1.1" id="Layer_1" xmlns="http://www.w3.org/2000/svg" xmlns:xlink="http://www.w3.org/1999/xlink" x="0px" y="0px"
	 viewBox="0 0 820 130" style="enable-background:new 0 0 820 130;" xml:space="preserve">
<style type="text/css">
	.st0{fill:none;}
	.st1{fill:#2B2B2B;}
	.st2{font-family:'Futura-Bold';}
	.st3{font-size:148.7777px;}
	.st4{fill:#54A4C4;}
	.st5{fill:#67E2EC;}
</style>
<g id="XMLID_10_">
	<rect id="XMLID_32_" x="224.5" y="3.2" class="st0" width="592.8" height="126.8"/>
	<text id="XMLID_31_" transform="matrix(1.0048 0 0 1 224.4688 126.71)" class="st1 st2 st3">Poloma</text>
</g>
<path id="XMLID_9_" class="st4" d="M173.2,68.5c-49.8,77-94.9,59.8-122.8,47.9C27.1,106.3,7.9,77.9,3,61.4c0,0,20.3,11.4,57.4,8"/>
<path id="XMLID_8_" class="st5" d="M212.9,41.2c-7.9-10.8-21.1-25.3-38.3-26.8c-23.7-2.1-34.9,23.2-57,24
	c-30.7,1-70.4-15.2-95.9-35.2c0,0-0.1,42.5,31.4,71c15.2,13.7,31.4,18,47.3,19.4c45.5,4,59.5-11.8,92.4-43
	C192.7,50.6,200.1,41.9,212.9,41.2"/>
</svg>
