<?xml version="1.0" encoding="utf-8"?>
<!-- Generator: Adobe Illustrator 19.0.0, SVG Export Plug-In . SVG Version: 6.00 Build 0)  -->
<svg version="1.1" xmlns="http://www.w3.org/2000/svg" xmlns:xlink="http://www.w3.org/1999/xlink" x="0px" y="0px"
	 viewBox="-379 181 200 200" style="enable-background:new -379 181 200 200;" xml:space="preserve">
<style type="text/css">
	.st0{fill:#4FC1EA;}
</style>
<g id="Calque_1">
</g>
<g id="Layer_2">
	<path class="st0" d="M-295.5,242.9c-1.3-2.4-3.7-4-6.6-4c-4.1,0-7.5,3.3-7.5,7.5c0,4.1,3.3,7.5,7.5,7.5c0.6,0,1.2-0.1,1.7-0.2
		l12,19.5c1.4-1.3,3.2-2.2,5.1-2.6l-12.5-20.2c0.3-0.6,0.6-1.2,0.8-1.8l0,0h23.9c-0.1-0.7-0.2-1.4-0.2-2.2c0-1.2,0.2-2.4,0.6-3.5
		C-270.6,242.9-295.5,242.9-295.5,242.9z M-302,249.2c-1.5,0-2.8-1.2-2.8-2.8c0-1.5,1.2-2.8,2.8-2.8c1.5,0,2.8,1.2,2.8,2.8
		C-299.4,248-300.5,249.2-302,249.2z M-260.8,239c-4.1,0-7.5,3.3-7.5,7.5c0,4.1,3.3,7.5,7.5,7.5c0.6,0,1.2-0.1,1.7-0.2l12,19.5
		c1.4-1.3,3.2-2.2,5.1-2.6l-12.5-20.3c0.7-1.1,1.1-2.5,1.1-3.9C-253.4,242.3-256.6,239-260.8,239z M-260.8,249.2
		c-1.5,0-2.8-1.2-2.8-2.8c0-1.5,1.2-2.8,2.8-2.8c1.5,0,2.8,1.2,2.8,2.8C-258,248-259.3,249.2-260.8,249.2z M-302,323
		c3,0,5.5-1.7,6.7-4.2h24.7c-0.4-1.1-0.6-2.3-0.6-3.5c0-0.7,0.1-1.5,0.2-2.2H-295c-0.2-0.6-0.4-1.1-0.7-1.6l12.4-20.2
		c-1.9-0.4-3.7-1.3-5.1-2.6l-11.9,19.3c-0.6-0.2-1.2-0.2-1.9-0.2c-4.1,0-7.5,3.3-7.5,7.5v0.1v0.1C-309.5,319.7-306.3,323-302,323z
		 M-302,312.8c1.5,0,2.7,1.2,2.8,2.6c-0.1,1.5-1.3,2.6-2.8,2.6s-2.7-1.2-2.8-2.6C-304.8,314-303.5,312.8-302,312.8z M-247.1,288.8
		l-12,19.5c-0.6-0.1-1.1-0.2-1.7-0.2c-4.1,0-7.5,3.3-7.5,7.5c0,4.1,3.3,7.5,7.5,7.5c4.1,0,7.5-3.3,7.5-7.5c0-1.4-0.4-2.8-1.1-3.9
		l12.4-20.3C-243.9,290.9-245.7,290-247.1,288.8z M-260.8,318.3c-1.5,0-2.8-1.2-2.8-2.8c0-1.5,1.2-2.8,2.8-2.8
		c1.5,0,2.8,1.2,2.8,2.8C-258,317.1-259.3,318.3-260.8,318.3z M-240.1,273.5c-2.9,0-5.3,1.6-6.6,4h-24.8c0.4,1.1,0.6,2.3,0.6,3.5
		c0,0.7-0.1,1.5-0.2,2.2h23.9c0.9,3.1,3.8,5.3,7.2,5.3c4.1,0,7.5-3.3,7.5-7.5C-232.6,276.9-235.9,273.5-240.1,273.5z M-240.1,283.8
		c-1.5,0-2.8-1.2-2.8-2.8c0-1.5,1.2-2.8,2.8-2.8c1.5,0,2.8,1.2,2.8,2.8C-237.3,282.5-238.6,283.8-240.1,283.8z M-281.3,273.5
		C-281.4,273.5-281.4,273.5-281.3,273.5c-3.4,0-6.3,2.2-7.2,5.3h-23.9c0.1,0.7,0.2,1.4,0.2,2.2c0,1.2-0.2,2.4-0.6,3.5h24.8
		c1.3,2.4,3.7,4,6.6,4c0,0,0,0,0.1,0l0,0l12.5,20.4c1.2-1.5,2.8-2.6,4.7-3.2l-12-19.5l0,0c1.3-1.3,2.1-3.2,2.1-5.2s-0.8-3.9-2.1-5.2
		l11.9-19.4c-1.9-0.6-3.5-1.7-4.7-3.2L-281.3,273.5z M-281.4,283.8c-1.5,0-2.8-1.2-2.8-2.8s1.2-2.8,2.8-2.8c1.5,0,2.8,1.2,2.8,2.8
		S-279.9,283.8-281.4,283.8z M-322.6,288.5L-322.6,288.5L-322.6,288.5l12.5,20.4c1.2-1.5,2.8-2.6,4.7-3.2l-11.9-19.5l0,0
		c1.3-1.3,2.1-3.2,2.1-5.2s-0.8-3.9-2.1-5.2l11.9-19.4c-1.9-0.6-3.5-1.7-4.7-3.2l-12.4,20.3c0,0,0,0-0.1,0c-4.1,0-7.5,3.3-7.5,7.5
		C-330.1,285.1-326.8,288.5-322.6,288.5z M-322.6,278.2c1.5,0,2.8,1.2,2.8,2.8s-1.2,2.8-2.8,2.8s-2.8-1.3-2.8-2.8
		S-324.1,278.2-322.6,278.2z"/>
</g>
</svg>
